<svg width="200" height="200" viewBox="0 0 200 200" fill="none" xmlns="http://www.w3.org/2000/svg">
<path d="M121.313 88.794C133.585 88.794 143.534 78.7919 143.534 66.4537V102.69C143.534 107.327 139.795 111.086 135.183 111.086H63.0029C58.391 111.086 54.6523 107.327 54.6523 102.69V66.4537C54.6523 78.7919 64.6007 88.794 76.8727 88.794C89.1446 88.794 99.093 78.7919 99.093 66.4537C99.093 78.7919 109.041 88.794 121.313 88.794Z" fill="#2563EB"/>
<path d="M99.093 66.4055L99.093 66.4537C99.093 66.4376 99.0929 66.4216 99.093 66.4055Z" fill="#2563EB"/>
<path d="M96.3134 116.731C96.3393 129.048 106.274 138.975 118.53 138.975C130.786 138.975 140.724 128.999 140.75 116.683L96.3134 116.731Z" fill="#2563EB"/>
<path d="M57.4359 116.683C57.4359 116.699 57.4358 116.715 57.4359 116.731C57.4617 129.048 67.4003 139.024 79.6562 139.024C91.9122 139.024 101.851 129.048 101.877 116.731H57.4359V116.683Z" fill="#2563EB"/>
<path d="M60.2194 66.4055C60.2194 69.4967 57.7269 72.0026 54.6523 72.0026C51.5777 72.0026 49.0852 69.4967 49.0852 66.4055C49.0852 63.3143 51.5777 60.8083 54.6523 60.8083C57.7269 60.8083 60.2194 63.3143 60.2194 66.4055Z" fill="#2563EB"/>
<path d="M104.66 63.6069C104.66 66.6981 102.168 69.204 99.093 69.204C96.0184 69.204 93.5259 66.6981 93.5259 63.6069C93.5259 60.5157 96.0184 58.0098 99.093 58.0098C102.168 58.0098 104.66 60.5157 104.66 63.6069Z" fill="#2563EB"/>
<path d="M149.101 66.4055C149.101 69.4967 146.608 72.0026 143.534 72.0026C140.459 72.0026 137.967 69.4967 137.967 66.4055C137.967 63.3143 140.459 60.8083 143.534 60.8083C146.608 60.8083 149.101 63.3143 149.101 66.4055Z" fill="#2563EB"/>
</svg>
