<svg width="48" height="48" viewBox="0 0 48 48" fill="none" xmlns="http://www.w3.org/2000/svg">
<path d="M12.821 17.5305C10.709 18.17 9.68345 19.4423 9.22624 20.1359C9.11159 20.3099 9.21615 20.5428 9.42038 20.5839L12.67 21.2381C12.8291 21.2702 12.9328 21.4275 12.9084 21.5879C11.3004 32.1653 21.5275 36.7547 28.6638 33.0597C28.7443 33.018 28.8408 33.0139 28.9245 33.0487C32.8032 34.6598 35.967 34.5662 37.8217 34.3099C38.131 34.2671 38.1505 33.841 37.855 33.7401C29.1343 30.7633 26.0152 24.5245 25.5144 18.8022C25.3835 17.3066 23.8172 13.2016 19.2675 13.0058C15.7934 12.8563 13.6137 15.6103 13.0319 17.325C12.9986 17.4231 12.9201 17.5004 12.821 17.5305Z" fill="#FBD1D2"/>
<circle cx="17.6178" cy="18.2688" r="0.995689" fill="white"/>
</svg>
